<svg width="10" height="10" viewBox="0 0 10 10" fill="none" xmlns="http://www.w3.org/2000/svg">
<path d="M2.2 6.2H1.8C1.58783 6.2 1.38434 6.11573 1.23432 5.96569C1.08428 5.81564 1 5.61218 1 5.4V1.8C1 1.58783 1.08428 1.38434 1.23432 1.23432C1.38434 1.08428 1.58783 1 1.8 1H5.4C5.61218 1 5.81564 1.08428 5.96569 1.23432C6.11573 1.38434 6.2 1.58783 6.2 1.8V2.2M4.6 3.8H8.2C8.64182 3.8 9 4.15818 9 4.6V8.2C9 8.64182 8.64182 9 8.2 9H4.6C4.15818 9 3.8 8.64182 3.8 8.2V4.6C3.8 4.15818 4.15818 3.8 4.6 3.8Z" stroke="#9599AD" stroke-width="1.2" stroke-linecap="round" stroke-linejoin="round"/>
</svg>
