<svg width="64" height="64" viewBox="0 0 64 64" fill="none" xmlns="http://www.w3.org/2000/svg">
<path d="M40.0007 60.6668H24.0007C9.52065 60.6668 3.33398 54.4802 3.33398 40.0002V24.0002C3.33398 9.52016 9.52065 3.3335 24.0007 3.3335H40.0007C54.4807 3.3335 60.6673 9.52016 60.6673 24.0002V40.0002C60.6673 54.4802 54.4807 60.6668 40.0007 60.6668ZM24.0007 7.3335C11.7073 7.3335 7.33398 11.7068 7.33398 24.0002V40.0002C7.33398 52.2935 11.7073 56.6668 24.0007 56.6668H40.0007C52.294 56.6668 56.6673 52.2935 56.6673 40.0002V24.0002C56.6673 11.7068 52.294 7.3335 40.0007 7.3335H24.0007Z" fill="#0071FF"/>
<path d="M36.6933 47.3332H27.28C24.3466 47.3332 22.0266 45.8932 20.72 43.2798L18.3466 38.5065C17.7866 37.3598 16.64 36.6665 15.36 36.6665H5.30664C4.21331 36.6665 3.30664 35.7598 3.30664 34.6665C3.30664 33.5732 4.23997 32.6665 5.33331 32.6665H15.36C18.16 32.6665 20.6666 34.2132 21.92 36.7198L24.2933 41.4932C24.9066 42.7198 25.8933 43.3332 27.28 43.3332H36.6933C37.9733 43.3332 39.12 42.6398 39.68 41.4932L42.0533 36.7198C43.3066 34.2132 45.8133 32.6665 48.6133 32.6665H58.5866C59.68 32.6665 60.5866 33.5732 60.5866 34.6665C60.5866 35.7598 59.68 36.6665 58.5866 36.6665H48.6133C47.3333 36.6665 46.1866 37.3598 45.6266 38.5065L43.2533 43.2798C42 45.7865 39.4933 47.3332 36.6933 47.3332Z" fill="#0071FF"/>
</svg>
